<svg width="36" height="30" viewBox="0 0 36 30" fill="none" xmlns="http://www.w3.org/2000/svg">
<path fill-rule="evenodd" clip-rule="evenodd" d="M33.1024 2.22375C33.6111 1.71504 33.6111 0.89025 33.1024 0.381536C32.5937 -0.127179 31.7689 -0.127179 31.2602 0.381536L3.90465 27.7371C3.39594 28.2458 3.39594 29.0706 3.90465 29.5793C4.41337 30.088 5.23816 30.088 5.74687 29.5793L11.5558 23.7703C13.457 24.3811 15.5592 24.7502 17.8524 24.7502C26.7341 24.7502 32.7522 19.2117 35.3165 15.5523C35.8341 14.8137 35.8341 13.8445 35.3165 13.1059C33.9664 11.1793 31.659 8.73174 28.4803 6.84585L33.1024 2.22375ZM26.5699 8.75627L22.7579 12.5682C22.9554 13.1183 23.0629 13.7111 23.0629 14.3291C23.0629 17.2068 20.7301 19.5397 17.8524 19.5397C17.2344 19.5397 16.6415 19.4321 16.0915 19.2346L13.6704 21.6558C14.9723 21.9667 16.3678 22.145 17.8524 22.145C25.3798 22.145 30.6158 17.5628 32.9879 14.3291C31.6832 12.5505 29.5121 10.3639 26.5699 8.75627ZM17.8524 3.90793C20.1454 3.90793 22.2476 4.27711 24.1487 4.8878L22.0342 7.00237C20.7323 6.69144 19.3369 6.51322 17.8524 6.51322C10.3249 6.51322 5.08888 11.0953 2.71677 14.3291C4.02146 16.1077 6.19252 18.2942 9.13469 19.9018L7.22428 21.8123C4.04566 19.9264 1.73826 17.4789 0.388195 15.5523C-0.129398 14.8137 -0.129398 13.8445 0.388195 13.1059C2.95251 9.44652 8.97058 3.90793 17.8524 3.90793ZM17.8524 9.11851C18.4703 9.11851 19.0631 9.22607 19.613 9.42349L12.9468 16.0898C12.7493 15.5398 12.6418 14.947 12.6418 14.3291C12.6418 11.4514 14.9746 9.11851 17.8524 9.11851Z" fill="white"/>
</svg>
