<svg width="36" height="36" viewBox="0 0 36 36" fill="none" xmlns="http://www.w3.org/2000/svg">
<path d="M15.9995 12.3736L7.82182 11.0178V10.0897L18.0688 11.9056L21.3041 8.74321L19.6589 1.76903H20.552L22.8664 11.7489L15.9995 12.3736Z" fill="white"/>
<path d="M28.9917 26.2381L28.5582 27.043H28.4582L25.2667 17.8632L19.4366 19.2852L12.6646 26.6644L12.1127 26.0166L19.4366 17.8632L25.7008 16.6112L28.9917 26.2381Z" fill="white"/>
<path d="M27.4182 12.6331L32.8573 11.7505V12.6331L27.6914 13.404L27.4182 12.6331Z" fill="white"/>
<path d="M6.21222 24.555L3.54779 16.5641L4.0554 15.0677L7.29063 24.5548L6.21222 24.555Z" fill="white"/>
<path d="M14.8548 32.3666L14.8157 31.8464L23.7854 31.3436L28.9764 30.4623L29.0676 30.9765L23.8504 31.8609L14.8548 32.3666Z" fill="white"/>
<path d="M6.80821 7.46987V6.63458L13.5911 2.14364L14.8376 2.09366L6.80821 7.46987Z" fill="white"/>
<path d="M25.0568 2.87831L24.9688 3.04277L20.7295 3.36109C20.7295 3.36109 20.7029 3.35846 20.6495 3.35063C19.8919 3.24889 13.9052 2.44251 13.6758 2.40342C13.4304 2.36426 15.0204 1.68582 15.0204 1.68582L15.1271 1.58401C16.0315 1.43791 16.9573 1.3648 17.9016 1.3648C20.4548 1.3648 22.8772 1.9076 25.0568 2.87831Z" fill="white"/>
<path d="M8.32276 10.8298L3.89421 16.9162L0.946201 14.9944C1.47181 12.3501 2.62966 9.93008 4.257 7.88298L4.25969 7.88041C5.76969 7.1189 7.70922 6.17233 7.80523 6.12537L7.80792 6.12274L8.32276 10.8298Z" fill="white"/>
<path d="M35.1115 17.0567L32.5077 12.3678L31.4219 7.75198C33.5268 10.3415 34.8661 13.5518 35.1115 17.0567Z" fill="white"/>
<path d="M32.9857 25.1698L32.7402 26.8493L32.7376 26.8518C31.9426 28.161 30.9688 29.3502 29.8536 30.4011C28.6024 31.5746 27.1725 32.5656 25.6038 33.3296L23.803 31.6059L28.7411 26.2833L32.9857 25.1698Z" fill="white"/>
<path d="M5.23713 29.0047L6.25017 24.1774L13.1514 25.7865L16.0006 32.1611L11.0621 33.6465L5.23713 29.0047Z" fill="white"/>
<path d="M21.7435 8.06903L15.4407 12.0164L17.9845 19.8944H26.5566L28.3205 12.9941L21.7435 8.06903Z" fill="white"/>
<path fill-rule="evenodd" clip-rule="evenodd" d="M17.9367 34.1756C26.8899 34.1756 34.1479 27.046 34.1479 18.2513C34.1479 9.45654 26.8899 2.327 17.9367 2.327C8.98356 2.327 1.72557 9.45654 1.72557 18.2513C1.72557 27.046 8.98356 34.1756 17.9367 34.1756ZM17.9367 35.8706C27.8429 35.8706 35.8735 27.9822 35.8735 18.2513C35.8735 8.5204 27.8429 0.631958 17.9367 0.631958C8.03055 0.631958 0 8.5204 0 18.2513C0 27.9822 8.03055 35.8706 17.9367 35.8706Z" fill="white"/>
</svg>
