<svg width="33" height="31" viewBox="0 0 33 31" fill="none" xmlns="http://www.w3.org/2000/svg">
<path d="M32.2622 13.808L27.2892 8.83499V3.09038C27.2892 2.05167 26.4475 1.20988 25.4073 1.20988C24.3694 1.20988 23.5277 2.05167 23.5277 3.09038V5.07354L19.8249 1.37064C17.9943 -0.459053 14.8113 -0.455807 12.9848 1.37395L0.550517 13.808C-0.183506 14.5434 -0.183506 15.7335 0.550517 16.4678C1.28487 17.2031 2.47724 17.2031 3.21133 16.4678L15.6444 4.03351C16.0494 3.6306 16.7633 3.6306 17.1662 4.03232L29.6014 16.4678C29.9702 16.8355 30.4509 17.0184 30.9315 17.0184C31.4131 17.0184 31.8947 16.8353 32.2623 16.4678C32.9966 15.7336 32.9966 14.5435 32.2622 13.808Z" fill="white"/>
<path d="M17.0596 7.60312C16.6983 7.24207 16.1134 7.24207 15.7532 7.60312L4.81598 18.5371C4.64331 18.7097 4.54541 18.9454 4.54541 19.1913V27.1661C4.54541 29.0375 6.06273 30.5547 7.93402 30.5547H13.349V22.1687H19.4625V30.5547H24.8776C26.7488 30.5547 28.2662 29.0375 28.2662 27.1662V19.1913C28.2662 18.9454 28.1691 18.7097 27.9956 18.5371L17.0596 7.60312Z" fill="white"/>
</svg>
