<svg width="20" height="17" viewBox="0 0 20 17" fill="none" xmlns="http://www.w3.org/2000/svg">
<path d="M12.5039 3.28837V0.701963C12.5039 0.11911 13.2105 -0.194174 13.6905 0.131252L13.7732 0.196823L19.7691 5.56393C20.0491 5.81529 20.0744 6.21843 19.8451 6.4965L19.7691 6.57542L13.7732 11.9462C13.3225 12.3493 12.5905 12.0907 12.5105 11.5406L12.5039 11.441V8.89591L12.1599 8.92384C9.75989 9.15819 7.45858 10.1673 5.24394 11.968C4.72395 12.3906 3.92129 11.9923 4.00662 11.3536C4.67061 6.38721 7.45325 3.64902 12.2039 3.30659L12.5039 3.28837V3.28837ZM3.3333 1.21439C2.44925 1.21439 1.60141 1.53422 0.9763 2.10352C0.351186 2.67283 0 3.44497 0 4.25008V13.9643C0 14.7694 0.351186 15.5416 0.9763 16.1109C1.60141 16.6802 2.44925 17 3.3333 17H13.9998C14.8839 17 15.7317 16.6802 16.3568 16.1109C16.982 15.5416 17.3331 14.7694 17.3331 13.9643V12.75C17.3331 12.589 17.2629 12.4346 17.1379 12.3207C17.0129 12.2069 16.8433 12.1429 16.6665 12.1429C16.4897 12.1429 16.3201 12.2069 16.1951 12.3207C16.0701 12.4346 15.9998 12.589 15.9998 12.75V13.9643C15.9998 14.4474 15.7891 14.9107 15.414 15.2522C15.039 15.5938 14.5303 15.7857 13.9998 15.7857H3.3333C2.80287 15.7857 2.29417 15.5938 1.9191 15.2522C1.54403 14.9107 1.33332 14.4474 1.33332 13.9643V4.25008C1.33332 3.76701 1.54403 3.30373 1.9191 2.96215C2.29417 2.62056 2.80287 2.42867 3.3333 2.42867H7.33325C7.51006 2.42867 7.67963 2.3647 7.80465 2.25084C7.92967 2.13698 7.99991 1.98255 7.99991 1.82153C7.99991 1.6605 7.92967 1.50608 7.80465 1.39222C7.67963 1.27835 7.51006 1.21439 7.33325 1.21439H3.3333Z" fill="#F2F2F2"/>
</svg>
