<svg width="33" height="32" viewBox="0 0 33 32" fill="none" xmlns="http://www.w3.org/2000/svg">
<path d="M14.6861 1.90592C15.4029 0.36246 17.5971 0.362462 18.3139 1.90593L21.5559 8.88686C21.8473 9.51436 22.4424 9.94668 23.1292 10.0299L30.7703 10.956C32.4597 11.1608 33.1378 13.2477 31.8914 14.4063L26.2539 19.6469C25.7472 20.1179 25.5199 20.8174 25.653 21.4964L27.1335 29.0497C27.4608 30.7197 25.6856 32.0094 24.1985 31.1821L17.4724 27.44C16.8678 27.1036 16.1322 27.1036 15.5276 27.44L8.80154 31.1821C7.31441 32.0094 5.5392 30.7197 5.86653 29.0497L7.347 21.4964C7.48007 20.8174 7.25279 20.1179 6.74605 19.6469L1.10862 14.4063C-0.137805 13.2477 0.540268 11.1608 2.22969 10.956L9.87078 10.0299C10.5576 9.94668 11.1527 9.51436 11.4441 8.88686L14.6861 1.90592Z" fill="white"/>
</svg>
