<svg width="41" height="40" viewBox="0 0 41 40" fill="none" xmlns="http://www.w3.org/2000/svg">
<path d="M18.5336 2.37077C18.9451 0.200868 22.0549 0.200868 22.4664 2.37077C22.7968 4.11358 25.0667 4.59607 26.0775 3.13833C27.3359 1.32337 30.1769 2.58827 29.6702 4.73792C29.2632 6.46447 31.1406 7.82848 32.6569 6.90788C34.5447 5.76168 36.6257 8.07277 35.2884 9.83047C34.2144 11.2422 35.3746 13.2519 37.1343 13.0276C39.3251 12.7484 40.2861 15.7061 38.3496 16.7679C36.7942 17.6207 37.0367 19.9286 38.7355 20.4394C40.8505 21.0754 40.5254 24.1683 38.3244 24.3506C36.5566 24.4971 35.8395 26.7041 37.1836 27.8617C38.857 29.3029 37.3021 31.9962 35.2172 31.2675C33.5426 30.6823 31.9899 32.4069 32.7469 34.0111C33.6895 36.0084 31.1736 37.8363 29.5653 36.3227C28.2735 35.1069 26.1536 36.0508 26.1927 37.8242C26.2414 40.0323 23.1995 40.6788 22.3459 38.6419C21.6603 37.0059 19.3397 37.0059 18.6541 38.6419C17.8005 40.6788 14.7586 40.0323 14.8073 37.8242C14.8464 36.0508 12.7265 35.1069 11.4347 36.3227C9.82644 37.8363 7.3105 36.0084 8.25308 34.0111C9.01014 32.4069 7.45736 30.6823 5.78281 31.2675C3.69791 31.9962 2.14296 29.3029 3.81644 27.8617C5.16054 26.7041 4.44344 24.4971 2.67562 24.3506C0.474605 24.1683 0.149534 21.0754 2.26454 20.4394C3.96327 19.9286 4.20584 17.6207 2.65043 16.7679C0.713875 15.7061 1.67488 12.7484 3.86572 13.0276C5.62535 13.2519 6.78565 11.2422 5.7116 9.83047C4.37435 8.07277 6.45526 5.76168 8.34311 6.90788C9.85939 7.82848 11.7368 6.46447 11.3298 4.73792C10.8231 2.58827 13.6641 1.32337 14.9225 3.13833C15.9333 4.59607 18.2032 4.11359 18.5336 2.37077Z" fill="white"/>
</svg>
