<svg width="15" height="18" viewBox="0 0 15 18" fill="none" xmlns="http://www.w3.org/2000/svg">
<path fill-rule="evenodd" clip-rule="evenodd" d="M4.49969 0.494505C4.49969 0.221398 4.72354 0 4.99969 0H9.99969C10.2758 0 10.4997 0.221398 10.4997 0.494505C10.4997 0.767613 10.2758 0.989011 9.99969 0.989011H7.99986V0.989021V2.48873C11.9089 2.74312 15 5.9596 15 9.89009C15 13.9867 11.6421 17.3077 7.5 17.3077C3.35786 17.3077 0 13.9867 0 9.89009C0 5.95969 3.09091 2.74328 6.99986 2.48874V0.989021V0.989011H4.99969C4.72354 0.989011 4.49969 0.767613 4.49969 0.494505ZM8.70046 6.4534L5.17071 9.98316C5.10771 10.0462 5.15233 10.1539 5.24142 10.1539H6.86126C6.92951 10.1539 6.97771 10.2207 6.95613 10.2855L6.13396 12.752C6.10059 12.8521 6.22492 12.9289 6.29954 12.8543L9.82929 9.32458C9.89229 9.26158 9.84767 9.15387 9.75858 9.15387H8.13874C8.07049 9.15387 8.02229 9.087 8.04387 9.02225L8.86604 6.55574C8.89941 6.45563 8.77508 6.37879 8.70046 6.4534Z" fill="#F2F2F2"/>
</svg>
