<svg width="27" height="27" viewBox="0 0 27 27" fill="none" xmlns="http://www.w3.org/2000/svg">
<circle cx="13.2306" cy="13.8991" r="12.115" fill="#FF0000"/>
<circle cx="13.4505" cy="13.8149" r="11.9856" stroke="white" stroke-width="1.84393"/>
<path fill-rule="evenodd" clip-rule="evenodd" d="M16.1151 8.19473C16.2653 8.29224 16.1786 8.52257 15.9996 8.52257C13.132 8.52257 10.8074 10.6922 10.8074 13.3686C10.8074 16.0449 13.132 18.2146 15.9996 18.2146C16.1302 18.2146 16.2596 18.2101 16.3877 18.2012C16.7306 18.1776 16.9642 18.5914 16.6981 18.8089C15.5647 19.7355 14.1164 20.2914 12.5383 20.2914C8.90604 20.2914 5.96155 17.3469 5.96155 13.7147C5.96155 10.0824 8.90604 7.13794 12.5383 7.13794C13.8573 7.13794 15.0856 7.52623 16.1151 8.19473Z" fill="white"/>
<path d="M17.6064 10.8489C17.6573 10.7465 17.8035 10.7465 17.8544 10.8489L18.5153 12.1791C18.5355 12.2197 18.5742 12.2478 18.619 12.2545L20.0884 12.472C20.2015 12.4887 20.2467 12.6278 20.165 12.7078L19.1041 13.7475C19.0718 13.7792 19.057 13.8247 19.0645 13.8694L19.3117 15.334C19.3307 15.4468 19.2125 15.5327 19.1111 15.4798L17.7945 14.7921C17.7544 14.7711 17.7065 14.7711 17.6663 14.7921L16.3498 15.4798C16.2483 15.5327 16.1301 15.4468 16.1491 15.334L16.3963 13.8694C16.4038 13.8247 16.3891 13.7792 16.3567 13.7475L15.2958 12.7078C15.2141 12.6278 15.2593 12.4887 15.3725 12.472L16.8418 12.2545C16.8866 12.2478 16.9253 12.2197 16.9455 12.1791L17.6064 10.8489Z" fill="white"/>
</svg>
