<svg width="38" height="32" viewBox="0 0 38 32" fill="none" xmlns="http://www.w3.org/2000/svg">
<path fill-rule="evenodd" clip-rule="evenodd" d="M2 0C0.895431 0 0 0.895431 0 2V30C0 31.1046 0.89543 32 2 32H36C37.1046 32 38 31.1046 38 30V2C38 0.895431 37.1046 0 36 0H2ZM15.4409 7.79784C14.1005 7.00739 12.4106 7.98305 12.425 9.53905L12.4883 16.3923L12.425 23.2456C12.4106 24.8016 14.1005 25.7772 15.4409 24.9868L21.3443 21.5053L27.311 18.1335C28.6658 17.368 28.6658 15.4166 27.3111 14.6511L21.3443 11.2793L15.4409 7.79784Z" fill="white"/>
</svg>
